<svg xmlns="http://www.w3.org/2000/svg" width="152.255" height="79.435" viewBox="0 0 152.255 79.435"><defs><style>.a{fill:#cb8e00;}.b{fill:#333;}</style></defs><g transform="translate(111.94)"><g transform="translate(11.412 18.776)"><path class="a" d="M1210.641-1421.338a2.008,2.008,0,0,0-2.008-2.008,2.008,2.008,0,0,0-2.008,2.008,2.008,2.008,0,0,0,2.008,2.008h0A2.009,2.009,0,0,0,1210.641-1421.338Z" transform="translate(-1206.624 1423.346)"/></g><g transform="translate(19.674 18.776)"><path class="a" d="M1324.485-1421.338a2.008,2.008,0,0,0-2.008-2.008,2.008,2.008,0,0,0-2.008,2.008,2.008,2.008,0,0,0,2.008,2.008h0A2.009,2.009,0,0,0,1324.485-1421.338Z" transform="translate(-1320.469 1423.346)"/></g><g transform="translate(27.93 18.776)"><path class="a" d="M1438.247-1421.338a2.008,2.008,0,0,0-2.008-2.008,2.008,2.008,0,0,0-2.008,2.008,2.008,2.008,0,0,0,2.008,2.008h0A2.009,2.009,0,0,0,1438.247-1421.338Z" transform="translate(-1434.231 1423.346)"/></g><path class="a" d="M1089.3-1677.313a5.753,5.753,0,0,0-1.374-2.619,6.127,6.127,0,0,0-2.747-1.59,15.822,15.822,0,0,0-4.508-.536h-19.236a15.832,15.832,0,0,0-4.508.536,6.142,6.142,0,0,0-2.747,1.59,5.758,5.758,0,0,0-1.374,2.619,15.081,15.081,0,0,0-.386,3.584v23.088c0,6.478-3.046,13.066-3.046,13.066s6.926-2.928,12.618-2.928h18.379a17.532,17.532,0,0,0,4.678-.513,6.283,6.283,0,0,0,2.834-1.569,5.546,5.546,0,0,0,1.417-2.6,14.926,14.926,0,0,0,.387-3.606v-24.94A14.987,14.987,0,0,0,1089.3-1677.313Zm-3.8,18.566a10.452,10.452,0,0,0-.665,4.079v6.182q0,2.275-.985,3.071a5.661,5.661,0,0,1-3.476.79h-18.635a5.721,5.721,0,0,1-3.476-.79q-.988-.79-.987-3.071v-6.182a10.459,10.459,0,0,0-.664-4.079,5.548,5.548,0,0,0-2.255-2.528,5.568,5.568,0,0,0,2.255-2.512,10.42,10.42,0,0,0,.664-4.1v-6.139a6.494,6.494,0,0,1,.237-1.91,2.566,2.566,0,0,1,.75-1.2,2.9,2.9,0,0,1,1.374-.622,11.01,11.01,0,0,1,2.1-.172h18.635a10.994,10.994,0,0,1,2.1.172,2.906,2.906,0,0,1,1.377.622,2.585,2.585,0,0,1,.75,1.2,6.566,6.566,0,0,1,.237,1.91v6.139a10.409,10.409,0,0,0,.665,4.1,5.566,5.566,0,0,0,2.255,2.512,5.545,5.545,0,0,0-2.26,2.528Z" transform="translate(-1049.372 1682.063)"/></g><g transform="translate(0 11.504)"><g transform="translate(0 0.234)"><path class="a" d="M-481.08-1512.773h-7.013v-2.543h16.926v2.543h-7.013v17.916h-2.894Z" transform="translate(488.456 1515.679)"/><path class="a" d="M-482.455-1499.132h-3.619l-.005-17.916h-7.014v-3.269h17.651v3.269h-7.013Zm-2.894-.726h2.168v-17.916h7.013v-1.817h-16.2v1.817h7.013Z" transform="translate(493.093 1520.316)"/></g><g transform="translate(21.072)"><path class="a" d="M-197.735-1508.079c0-5.991,4.617-10.463,10.9-10.463,6.225,0,10.845,4.442,10.845,10.463s-4.617,10.462-10.845,10.462C-193.121-1497.616-197.735-1502.089-197.735-1508.079Zm18.821,0a7.95,7.95,0,0,0-7.861-8.038,7.95,7.95,0,0,0-8.038,7.861,7.95,7.95,0,0,0,7.861,8.038h.118a7.682,7.682,0,0,0,7.918-7.437Q-178.909-1507.867-178.914-1508.079Z" transform="translate(198.098 1518.905)"/><path class="a" d="M-191.472-1501.891a11.5,11.5,0,0,1-8.058-3.086,10.613,10.613,0,0,1-3.2-7.74,10.611,10.611,0,0,1,3.206-7.739,11.505,11.505,0,0,1,8.059-3.086,11.425,11.425,0,0,1,8.009,3.075,10.633,10.633,0,0,1,3.2,7.75,10.633,10.633,0,0,1-3.2,7.75,11.425,11.425,0,0,1-8.009,3.075Zm0-20.925c-6.106,0-10.538,4.248-10.538,10.1a9.894,9.894,0,0,0,2.982,7.217,10.782,10.782,0,0,0,7.555,2.883h0c6.074,0,10.482-4.248,10.482-10.1S-185.4-1522.816-191.47-1522.816Zm.244,18.328c-.083,0-.165,0-.249,0h-.116a8.26,8.26,0,0,1-5.852-2.5,8.258,8.258,0,0,1-2.369-5.9,8.323,8.323,0,0,1,8.311-8.221h.093a8.259,8.259,0,0,1,5.851,2.5,8.258,8.258,0,0,1,2.369,5.9c0,.146,0,.293,0,.438A8.055,8.055,0,0,1-191.226-1504.488Zm-.239-.73h.006q.116,0,.232,0a7.328,7.328,0,0,0,7.312-7.09c0-.134,0-.27,0-.4v-.013a7.537,7.537,0,0,0-2.162-5.389,7.538,7.538,0,0,0-5.34-2.282h-.085a7.6,7.6,0,0,0-7.585,7.5,7.538,7.538,0,0,0,2.163,5.389,7.539,7.539,0,0,0,5.34,2.282h.119Z" transform="translate(202.734 1523.542)"/></g><g transform="translate(50.211 0.233)"><path class="a" d="M218.626-1497.415v2.543H203.779v-20.458h14.438v2.543H206.7v6.284H216.96v2.484H206.7v6.605Z" transform="translate(-203.416 1515.693)"/><path class="a" d="M214.352-1499.146H198.779v-21.183h15.163v3.269H202.428v5.558h10.258v3.21H202.428v5.879h11.924Zm-14.847-.726h14.121v-1.817H201.7v-7.331H211.96v-1.758H201.7v-7.01h11.515v-1.817H199.5Z" transform="translate(-198.779 1520.33)"/></g><g transform="translate(72.716 0.235)"><path class="a" d="M516.805-1512.761v7.131h10.259v2.513H516.805v8.271h-2.923V-1515.3h14.439v2.543Z" transform="translate(-513.519 1515.666)"/><path class="a" d="M512.532-1499.12h-3.649V-1520.3h15.165v3.269H512.532v6.405h10.259v3.239H512.532Zm-2.923-.726h2.2v-8.271h10.259v-1.788H511.806v-7.857h11.516v-1.817H509.609Z" transform="translate(-508.883 1520.303)"/></g><g transform="translate(94.194 0.234)"><path class="a" d="M809.839-1515.316h2.923v17.914h11.077v2.543h-14Z" transform="translate(-809.476 1515.679)"/><path class="a" d="M819.565-1499.134H804.84v-21.182h3.649v17.914h11.077Zm-14-.726H818.84v-1.817H807.763v-17.914h-2.2Z" transform="translate(-804.84 1520.316)"/></g></g><g transform="translate(0.532 41.721)"><g transform="translate(0 1.678)"><path class="b" d="M-476.81-1078.781h-8.949v-5.274h24.37v5.274h-8.949v22.693h-6.472Z" transform="translate(485.759 1084.055)"/></g><g transform="translate(23.612 7.83)"><path class="b" d="M-160.4-988.21c0-6.472,4.994-11.067,11.826-11.067s11.786,4.594,11.786,11.067-4.954,11.067-11.786,11.067S-160.4-981.738-160.4-988.21Zm17.3,0c0-3.716-2.357-5.953-5.473-5.953s-5.513,2.237-5.513,5.953,2.4,5.953,5.513,5.953S-143.106-984.495-143.106-988.21Z" transform="translate(160.405 999.277)"/></g><g transform="translate(49.86)"><path class="b" d="M224.691-1107.176v29.644h-5.953v-2.477a8.268,8.268,0,0,1-6.712,2.8c-6.073,0-10.747-4.315-10.747-11.067s4.674-11.067,10.747-11.067a8.258,8.258,0,0,1,6.432,2.6v-10.427Zm-6.113,18.9c0-3.715-2.4-5.953-5.473-5.953-3.116,0-5.513,2.237-5.513,5.953s2.4,5.953,5.513,5.953C216.181-1082.326,218.578-1084.564,218.578-1088.279Z" transform="translate(-201.279 1107.176)"/></g><g transform="translate(77.626 7.83)"><path class="b" d="M604.292-989.729v12.265h-5.833v-2.677c-1.159,1.958-3.4,3-6.552,3-5.034,0-8.03-2.8-8.03-6.512,0-3.8,2.677-6.432,9.229-6.432h4.954c0-2.677-1.6-4.235-4.954-4.235a10.335,10.335,0,0,0-6.192,2l-2.237-4.355a16.523,16.523,0,0,1,9.269-2.6C600.5-999.277,604.292-996.241,604.292-989.729Zm-6.232,5.473v-2.2h-4.275c-2.916,0-3.835,1.079-3.835,2.517,0,1.558,1.318,2.6,3.516,2.6A4.592,4.592,0,0,0,598.06-984.255Z" transform="translate(-583.877 999.277)"/></g><g transform="translate(99.999 8.15)"><path class="b" d="M916.77-994.873l-9.708,22.812c-2.077,5.194-5.034,6.752-8.909,6.752a9.544,9.544,0,0,1-5.993-1.958l2.277-4.435a5.526,5.526,0,0,0,3.516,1.358c1.718,0,2.677-.759,3.516-2.677l.08-.2-9.309-21.654h6.432l6.033,14.582,6.073-14.582Z" transform="translate(-892.16 994.873)"/></g></g></svg>