<svg xmlns="http://www.w3.org/2000/svg" width="27.497" height="27" viewBox="0 0 27.497 27"><defs><style>.a{fill:#cb8e00;}</style></defs><path class="a" d="M1348.177-39.956h-10.312a8.518,8.518,0,0,0-8.593,8.438v10.124a8.518,8.518,0,0,0,8.593,8.438h10.312a8.518,8.518,0,0,0,8.593-8.438V-31.518A8.518,8.518,0,0,0,1348.177-39.956Zm6.015,18.562a5.968,5.968,0,0,1-6.015,5.907h-10.312a5.969,5.969,0,0,1-6.015-5.907V-31.518a5.969,5.969,0,0,1,6.015-5.907h10.312a5.968,5.968,0,0,1,6.015,5.907Z" transform="translate(-1329.273 39.956)"/><path class="a" d="M1340.989-35.2a6.812,6.812,0,0,0-6.873,6.75,6.812,6.812,0,0,0,6.873,6.75,6.814,6.814,0,0,0,6.875-6.75A6.814,6.814,0,0,0,1340.989-35.2Zm0,10.969a4.265,4.265,0,0,1-4.3-4.219,4.264,4.264,0,0,1,4.3-4.219,4.264,4.264,0,0,1,4.3,4.219A4.265,4.265,0,0,1,1340.989-24.232Z" transform="translate(-1327.241 41.951)"/><path class="a" d="M1344.435-36.191a.908.908,0,0,1,.916.9.908.908,0,0,1-.916.9.908.908,0,0,1-.917-.9A.909.909,0,0,1,1344.435-36.191Z" transform="translate(-1323.296 41.536)"/></svg>