<svg xmlns="http://www.w3.org/2000/svg" width="28.248" height="27" viewBox="0 0 28.248 27"><defs><style>.a{fill:#cb8e00;}</style></defs><g transform="translate(0 0.668)"><path class="a" d="M3.426-.668a3.156,3.156,0,1,0-.079,6.3h.039a3.157,3.157,0,1,0,.04-6.3Zm0,0"/><path class="a" d="M8.109,198.313h6.055v18.218H8.109Zm0,0" transform="translate(-7.751 -190.198)"/><path class="a" d="M232.728,188.625c-3.267,0-5.457,3.07-5.457,3.07v-2.642h-6.056v18.218h6.055V197.1a4.15,4.15,0,0,1,.2-1.478,3.315,3.315,0,0,1,3.107-2.214c2.191,0,3.068,1.671,3.068,4.12v9.746H239.7V196.825c0-5.6-2.988-8.2-6.971-8.2Zm0,0" transform="translate(-211.451 -180.938)"/></g></svg>