<svg xmlns="http://www.w3.org/2000/svg" width="24.449" height="24.449" viewBox="0 0 24.449 24.449"><defs><style>.a{fill:#fff;}</style></defs><g transform="translate(0 0)"><path class="a" d="M24.355,22.14l-1.678-4.885a11.945,11.945,0,1,0-10.719,6.656h.019a11.993,11.993,0,0,0,5.281-1.237l4.885,1.678a1.754,1.754,0,0,0,.571.1,1.743,1.743,0,0,0,1.642-2.309Zm-1.44.772a.28.28,0,0,1-.3.07L17.438,21.2a.725.725,0,0,0-.574.045,10.5,10.5,0,1,1,4.387-4.387.725.725,0,0,0-.045.574l1.779,5.176A.28.28,0,0,1,22.915,22.912Z" transform="translate(-0.003 0)"/></g><g transform="translate(11.113 17.322)"><path class="a" d="M233.445,362.748a.725.725,0,1,0,.725.725A.733.733,0,0,0,233.445,362.748Z" transform="translate(-232.719 -362.748)"/></g><g transform="translate(8.232 6.097)"><path class="a" d="M176,127.674a3.61,3.61,0,0,0-3.606,3.606.725.725,0,1,0,1.45,0A2.156,2.156,0,1,1,176,133.436a.725.725,0,0,0-.725.725v2.956a.725.725,0,1,0,1.45,0v-2.3a3.606,3.606,0,0,0-.725-7.139Z" transform="translate(-172.395 -127.674)"/></g></svg>