<svg xmlns="http://www.w3.org/2000/svg" width="33.599" height="27" viewBox="0 0 33.599 27"><defs><style>.a{fill:#cb8e00;}</style></defs><path class="a" d="M1320.189-35.843c-2.113.1-2.066.088-2.3.106l1.251-3.509s-3.907,1.411-4.9,1.665a7.951,7.951,0,0,0-9.232-.729,6.238,6.238,0,0,0-3.074,6.454,17.124,17.124,0,0,1-11.048-6.108l-.927-1.092-.692,1.249a7.419,7.419,0,0,0-.819,5.081,7.26,7.26,0,0,0,.72,1.982l-.795-.3-.094,1.3a6.87,6.87,0,0,0,1.2,4.137,7.4,7.4,0,0,0,.937,1.134l-.411-.06.5,1.494a7.308,7.308,0,0,0,3.806,4.328c-1.776.739-3.208,1.212-5.565,1.972l-2.155.7,1.992,1.069a21.17,21.17,0,0,0,6.092,2.176c5.89.907,12.523.168,16.988-3.781,3.761-3.326,5-8.056,4.739-12.979a3.038,3.038,0,0,1,.585-2c.834-1.093,3.2-4.278,3.2-4.286Zm-4.778,3.128" transform="translate(-1286.59 39.448)"/></svg>