<svg xmlns="http://www.w3.org/2000/svg" width="21.999" height="21.117" viewBox="0 0 21.999 21.117"><defs><style>.a{fill:#cb8e00;}</style></defs><g transform="translate(0 -10.262)"><g transform="translate(0 10.262)"><path class="a" d="M21.956,21.836a8.672,8.672,0,0,0-6.744-7.6V13.14a1.461,1.461,0,0,0-.353-2.878H11.766a1.461,1.461,0,0,0-.353,2.878v1.095a8.627,8.627,0,0,0-4.231,2.327,8.721,8.721,0,0,0-.73.828l-.033,0H3.359a.43.43,0,1,0,0,.859h2.51A8.613,8.613,0,0,0,5.106,19.9H.43a.43.43,0,1,0,0,.859H4.863a8.736,8.736,0,0,0-.213,1.652H2.75a.43.43,0,1,0,0,.859H4.664a8.723,8.723,0,0,0,.268,1.652H2.148a.43.43,0,0,0,0,.859H5.206a8.678,8.678,0,0,0,7.256,5.556q.426.042.852.042a8.7,8.7,0,0,0,4.737-1.4.43.43,0,1,0-.469-.72,7.82,7.82,0,1,1,2.3-2.306.43.43,0,1,0,.721.468A8.707,8.707,0,0,0,21.956,21.836ZM11.165,11.723a.6.6,0,0,1,.6-.6H14.86a.6.6,0,1,1,0,1.2H11.766A.6.6,0,0,1,11.165,11.723Zm1.108,2.365v-.9h2.08v.9A8.755,8.755,0,0,0,12.273,14.087Z" transform="translate(0 -10.262)"/><path class="a" d="M436.2,425.5a.43.43,0,1,0,.3.126A.432.432,0,0,0,436.2,425.5Z" transform="translate(-417.046 -407.659)"/><path class="a" d="M161.537,144.609a6.665,6.665,0,1,0,6.665,6.665A6.673,6.673,0,0,0,161.537,144.609Zm0,12.471a5.806,5.806,0,1,1,5.806-5.806A5.813,5.813,0,0,1,161.537,157.08Z" transform="translate(-148.218 -138.837)"/><path class="a" d="M262.03,219.537l-2.128,2.128a1.332,1.332,0,0,0-1.18,0l-.952-.952a.43.43,0,0,0-.608.608l.952.952a1.335,1.335,0,1,0,2.395,0l2.066-2.066h0l.062-.062a.43.43,0,0,0-.608-.608Zm-2.718,3.8a.476.476,0,1,1,.476-.476A.476.476,0,0,1,259.312,223.338Z" transform="translate(-245.992 -210.425)"/><path class="a" d="M398.483,289.86h-.4a.43.43,0,0,0,0,.859h.4a.43.43,0,0,0,0-.859Z" transform="translate(-380.569 -277.847)"/><path class="a" d="M193.91,289.616h-.4a.43.43,0,1,0,0,.859h.4a.43.43,0,1,0,0-.859Z" transform="translate(-184.786 -277.613)"/><path class="a" d="M300.553,184.076a.43.43,0,0,0,.43-.43v-.4a.43.43,0,1,0-.859,0v.4A.43.43,0,0,0,300.553,184.076Z" transform="translate(-287.228 -175.405)"/><path class="a" d="M300.309,387.393a.43.43,0,0,0-.43.43v.4a.43.43,0,1,0,.859,0v-.4A.43.43,0,0,0,300.309,387.393Z" transform="translate(-286.994 -371.189)"/><path class="a" d="M.43,351.44a.43.43,0,1,0,.3.733.43.43,0,0,0-.3-.733Z" transform="translate(0 -336.781)"/></g></g></svg>