<svg xmlns="http://www.w3.org/2000/svg" width="35.836" height="24.637" viewBox="0 0 35.836 24.637"><defs><style>.a{fill:#cb8e00;}</style></defs><g transform="translate(0 -80)"><g transform="translate(0 80)"><path class="a" d="M34.313,82.374c-.972-1.729-2.027-2.047-4.175-2.168C27.992,80.06,22.6,80,17.923,80s-10.081.06-12.225.2c-2.143.123-3.2.439-4.182,2.17C.515,84.1,0,87.075,0,92.312v.018c0,5.214.515,8.211,1.516,9.92.981,1.729,2.036,2.043,4.179,2.188,2.146.125,7.544.2,12.227.2s10.07-.074,12.218-.2c2.148-.146,3.2-.459,4.175-2.188,1.01-1.709,1.521-4.706,1.521-9.92v-.018C35.836,87.075,35.325,84.1,34.313,82.374ZM13.439,99.038V85.6l11.2,6.719Z" transform="translate(0 -80)"/></g></g></svg>